<svg id="Layer_1" data-name="Layer 1" xmlns="http://www.w3.org/2000/svg" viewBox="0 0 343.52 38.6"><defs><style>.cls-1{fill:#fff;}.cls-2{fill:#1ed65f;}.cls-3{fill:#89ee46;}</style></defs><rect id="Separator" class="cls-1" x="149.08" y="1.37" width="1.93" height="30.88"/><path class="cls-1" d="M168.05,20.83V16.37c0-4.36,2.16-6.59,6.27-6.59,3.8,0,5.91,1.9,6.08,5.53H179q-.25-4.2-4.68-4.2c-3.26,0-4.81,1.72-4.81,5.36v4.26c0,3.63,1.55,5.36,4.83,5.36,2.88,0,4.49-1.35,4.66-4.19h1.4c-.17,3.61-2.25,5.52-6.06,5.52C170.21,27.42,168.05,25.19,168.05,20.83Z"/><path class="cls-1" d="M184,20.8V16.39c0-4.33,2.26-6.61,6.49-6.61s6.49,2.28,6.49,6.61V20.8c0,4.34-2.23,6.62-6.49,6.62S184,25.14,184,20.8Zm11.55-.07V16.47c0-3.64-1.65-5.36-5.06-5.36s-5,1.72-5,5.36v4.26c0,3.63,1.65,5.36,5,5.36S195.51,24.36,195.51,20.73Z"/><path class="cls-1" d="M213.45,16.62v4c0,4.51-2,6.54-6.44,6.54h-5.64v-17H207C211.42,10.08,213.45,12.13,213.45,16.62Zm-1.45,0c0-3.71-1.53-5.23-5.11-5.23H202.8V25.79h4.09c3.58,0,5.11-1.53,5.11-5.24Z"/><path class="cls-1" d="M229,25.79v1.33H217.84v-17h10.92v1.33h-9.5v6.28h8.25V19h-8.25v6.77Z"/><path class="cls-1" d="M239.68,10.08h1.43v17h-1.43Z"/><path class="cls-1" d="M258.72,10.08v17h-1.4L247.7,12V27.12h-1.38v-17h1.75l9.25,14.48V10.08Z"/><path class="cls-1" d="M262.43,22.61h1.43c0,2.28,1.63,3.48,4.68,3.48S273,25,273,22.73s-1.27-3.18-4.81-3.66c-3.91-.5-5.38-1.75-5.38-4.53,0-3.08,2.05-4.76,5.76-4.76s5.59,1.6,5.59,4.68h-1.43c0-2.25-1.35-3.35-4.16-3.35s-4.36,1.12-4.36,3.25,1.23,3,4.56,3.39c4.13.55,5.66,1.87,5.66,4.86,0,3.18-2,4.81-5.89,4.81S262.43,25.74,262.43,22.61Z"/><path class="cls-1" d="M278.11,10.08h1.43v17h-1.43Z"/><path class="cls-1" d="M296.61,21.05c0,4.16-2.11,6.37-6.22,6.37S284,25.16,284,21V16.22c0-4.06,2.31-6.44,6.39-6.44,3.69,0,5.91,2,6.09,5.43H295c-.18-2.6-1.81-4.1-4.71-4.1-3.21,0-4.91,1.82-4.91,5.23v4.51c0,3.51,1.67,5.24,5,5.24s4.78-1.63,4.78-5.06V19.77H291V18.45h5.59Z"/><path class="cls-1" d="M313.42,10.08v17H312V19h-9.62v8.1h-1.43v-17h1.43v7.61H312V10.08Z"/><path class="cls-1" d="M328.5,11.41h-5.36V27.12h-1.43V11.41h-5.36V10.08H328.5Z"/><path class="cls-1" d="M6.28,10.16a8.12,8.12,0,0,0-1.71.15,7.47,7.47,0,0,0-1.23.34,3.64,3.64,0,0,0-.77.37,2.9,2.9,0,0,0-.36.25V25.34H0V10.26l.52-.39A7,7,0,0,1,1.75,9.2a11.66,11.66,0,0,1,1.92-.63,10.32,10.32,0,0,1,2.6-.29,11.16,11.16,0,0,1,2.58.22A3.52,3.52,0,0,1,10.07,9a1,1,0,0,1,.54.92,1.31,1.31,0,0,1-.17.67,1.39,1.39,0,0,1-.33.46,5.77,5.77,0,0,0-1.36-.57A8.63,8.63,0,0,0,6.28,10.16Z"/><path class="cls-1" d="M14,18.88A6,6,0,0,0,16,23a6.86,6.86,0,0,0,4.41,1.32,8.73,8.73,0,0,0,3-.46,10.37,10.37,0,0,0,1.91-.82l.93,1.64c-.18.12-.47.27-.83.47a10.42,10.42,0,0,1-1.34.54,15.38,15.38,0,0,1-1.78.43,11.72,11.72,0,0,1-2.13.19,10.19,10.19,0,0,1-3.33-.54,7.35,7.35,0,0,1-4.49-4.22A9.23,9.23,0,0,1,11.59,18a10.17,10.17,0,0,1,.66-3.7,8.62,8.62,0,0,1,1.8-2.89,8,8,0,0,1,2.71-1.88,8.63,8.63,0,0,1,3.4-.67,7.38,7.38,0,0,1,5.2,1.65,5.93,5.93,0,0,1,1.78,4.6,3.88,3.88,0,0,1-.95,2.8,4.19,4.19,0,0,1-3.11,1Zm8.12-1.78a4,4,0,0,0,2.07-.44,2.07,2.07,0,0,0,.72-1.85,4.85,4.85,0,0,0-.25-1.56,3.51,3.51,0,0,0-.81-1.33A3.93,3.93,0,0,0,22.4,11a6,6,0,0,0-2.23-.36,5.7,5.7,0,0,0-2.62.58,6,6,0,0,0-1.93,1.48,6.64,6.64,0,0,0-1.19,2.06A7,7,0,0,0,14,17.07Z"/><path class="cls-1" d="M29.89,12.36c-.11-.24-.24-.57-.4-1a2.75,2.75,0,0,1-.23-1,1.17,1.17,0,0,1,.26-.78,1.07,1.07,0,0,1,.88-.32,1.91,1.91,0,0,1,.58.06l.29.1c.49,1.35,1,2.69,1.61,4s1.18,2.66,1.77,3.91,1.16,2.44,1.69,3.55l1.44,3c.43-.81.93-1.8,1.47-3s1.11-2.39,1.67-3.69,1.13-2.57,1.67-3.85S43.6,11,44,10a1.63,1.63,0,0,1,.33-.49,1.09,1.09,0,0,1,.81-.25,1.32,1.32,0,0,1,.82.22,2.76,2.76,0,0,1,.39.28,21.23,21.23,0,0,1-.73,2c-.33.81-.69,1.69-1.1,2.66s-.87,2-1.37,3-1,2.09-1.47,3.09-1,2-1.45,2.89-.89,1.72-1.27,2.42H36.49c-.52-.93-1.1-2.05-1.75-3.31S33.45,20,32.82,18.76s-1.2-2.49-1.72-3.63S30.18,13.08,29.89,12.36Z"/><path class="cls-1" d="M49.65,18.88A6,6,0,0,0,51.58,23,6.85,6.85,0,0,0,56,24.36a8.71,8.71,0,0,0,3-.46,10.18,10.18,0,0,0,1.92-.82l.92,1.64c-.18.12-.46.27-.82.47a10.42,10.42,0,0,1-1.34.54,15.89,15.89,0,0,1-1.78.43,11.83,11.83,0,0,1-2.14.19,10.13,10.13,0,0,1-3.32-.54,7.4,7.4,0,0,1-4.5-4.22A9.05,9.05,0,0,1,47.22,18a10,10,0,0,1,.65-3.7,9,9,0,0,1,1.8-2.89,8,8,0,0,1,2.72-1.88,8.58,8.58,0,0,1,3.39-.67A7.4,7.4,0,0,1,61,10.46a6,6,0,0,1,1.78,4.6,3.89,3.89,0,0,1-1,2.8,4.17,4.17,0,0,1-3.11,1Zm8.13-1.78a4,4,0,0,0,2.06-.44,2.07,2.07,0,0,0,.73-1.85,4.86,4.86,0,0,0-.26-1.56,3.49,3.49,0,0,0-.8-1.33A4,4,0,0,0,58,11a6.07,6.07,0,0,0-2.23-.36,5.64,5.64,0,0,0-2.62.58,5.93,5.93,0,0,0-1.92,1.48,6.64,6.64,0,0,0-1.19,2.06,7.59,7.59,0,0,0-.46,2.31Z"/><path class="cls-1" d="M79,25.94V16.7a6.23,6.23,0,0,0-1.39-4.35q-1.38-1.53-4.52-1.53a14.21,14.21,0,0,0-1.84.12c-.55.08-1,.17-1.43.27a6.29,6.29,0,0,0-1,.3l-.46.19V25.94H66.14V10.19a4.36,4.36,0,0,0,.65-.25,13,13,0,0,1,1.5-.46c.63-.16,1.38-.29,2.22-.42a18.9,18.9,0,0,1,2.82-.18,9.89,9.89,0,0,1,3.32.51,7.11,7.11,0,0,1,2.45,1.39,6.11,6.11,0,0,1,1.54,2.15,6.66,6.66,0,0,1,.54,2.71v10.3Z"/><path class="cls-1" d="M87.56,18.93a6,6,0,0,0,1.93,4.16,6.82,6.82,0,0,0,4.41,1.32,8.73,8.73,0,0,0,3-.46,10.18,10.18,0,0,0,1.92-.82l.92,1.65-.82.46a8.84,8.84,0,0,1-1.35.54,14.9,14.9,0,0,1-1.78.43,11.64,11.64,0,0,1-2.13.19,9.88,9.88,0,0,1-3.32-.54,7.38,7.38,0,0,1-4.5-4.21A9.13,9.13,0,0,1,85.13,18a10,10,0,0,1,.65-3.7,9,9,0,0,1,1.8-2.89A8,8,0,0,1,90.3,9.53a8.58,8.58,0,0,1,3.39-.67,7.4,7.4,0,0,1,5.21,1.65,6,6,0,0,1,1.78,4.6,3.89,3.89,0,0,1-1,2.8,4.15,4.15,0,0,1-3.11,1Zm8.12-1.78a4,4,0,0,0,2.07-.44,2.07,2.07,0,0,0,.72-1.85,4.85,4.85,0,0,0-.25-1.56,3.49,3.49,0,0,0-.8-1.33,4,4,0,0,0-1.48-.92,6.52,6.52,0,0,0-2.23-.36,5.84,5.84,0,0,0-2.63.58,6.11,6.11,0,0,0-1.91,1.47A6.57,6.57,0,0,0,88,14.81a7.3,7.3,0,0,0-.46,2.31Z"/><path class="cls-1" d="M110.68,10.77a8.24,8.24,0,0,0-1.71.15,8.81,8.81,0,0,0-1.22.33,4.63,4.63,0,0,0-.78.37c-.12.08-.24.16-.35.25V25.94h-2.23V10.87l.51-.39a6.52,6.52,0,0,1,1.21-.67A11.69,11.69,0,0,1,108,9.17a10.36,10.36,0,0,1,2.6-.28,11.28,11.28,0,0,1,2.59.21,3.92,3.92,0,0,1,1.24.49,1.07,1.07,0,0,1,.54.93,1.45,1.45,0,0,1-.17.67,1.79,1.79,0,0,1-.34.44,5.7,5.7,0,0,0-1.32-.56A8.06,8.06,0,0,0,110.68,10.77Z"/><path class="cls-1" d="M123,10.73a7.34,7.34,0,0,0-3,.49,5.77,5.77,0,0,0-1.49.89,1.57,1.57,0,0,1-.43-.46,1.39,1.39,0,0,1-.18-.69,1.11,1.11,0,0,1,.18-.64,1.87,1.87,0,0,1,.47-.46,4.75,4.75,0,0,1,1.34-.6,9.53,9.53,0,0,1,3-.34q4,0,6.08,1.64t2,5.31v10c-.65.11-1.52.23-2.62.35a42.27,42.27,0,0,1-4.36.19,13.66,13.66,0,0,1-4.12-.51,6.23,6.23,0,0,1-2.31-1.27,3.64,3.64,0,0,1-1-1.73,7.75,7.75,0,0,1-.23-1.85,6.29,6.29,0,0,1,.35-2.15,4.09,4.09,0,0,1,1.16-1.78A6,6,0,0,1,120.1,16a14,14,0,0,1,3.65-.42c.49,0,1,0,1.51,0l1.45.07,1.2.06c.36,0,.64,0,.84,0v-.07a4.87,4.87,0,0,0-1.34-3.7C126.51,11.11,125,10.7,123,10.73Zm5.81,6.94c-.11,0-.34-.05-.67-.08l-1.18-.11-1.46-.08-1.49,0a8.37,8.37,0,0,0-4,.8,3,3,0,0,0-1.47,2.89,3.18,3.18,0,0,0,1.2,2.72c.81.62,2.26.93,4.33.93a23.66,23.66,0,0,0,3.26-.17,9.24,9.24,0,0,0,1.48-.3Z"/><path class="cls-1" d="M134.23,23.74h-.75v2.2h-.33v-2.2h-.74v-.31h1.82Z"/><path class="cls-1" d="M137.18,25.94h-.33V23.86L136,25.94h-.22L135,23.86v2.08h-.32V23.43h.5l.76,2,.76-2h.49Z"/><path class="cls-2" d="M84.83,0a13.94,13.94,0,0,0-1.39,6v6.15l0,.1A12.29,12.29,0,0,1,85.32,9.6a11.51,11.51,0,0,1,3.85-2.66A12.06,12.06,0,0,1,93.88,6h.25A12.47,12.47,0,0,0,84.83,0Z"/><path class="cls-3" d="M82.08,0a14.1,14.1,0,0,1,1.39,6v6.15l0,.1A12,12,0,0,0,81.56,9.6a11.41,11.41,0,0,0-3.85-2.66A12.06,12.06,0,0,0,73,6h-.25A12.5,12.5,0,0,1,82.08,0Z"/></svg>